<?xml version="1.0" standalone="no"?>
<!DOCTYPE svg PUBLIC "-//W3C//DTD SVG 20010904//EN"
 "http://www.w3.org/TR/2001/REC-SVG-20010904/DTD/svg10.dtd">
<svg version="1.0" xmlns="http://www.w3.org/2000/svg"
 width="1024.000000pt" height="1024.000000pt" viewBox="0 0 1024.000000 1024.000000"
 preserveAspectRatio="xMidYMid meet">
<metadata>
Created by potrace 1.14, written by Peter Selinger 2001-2017
</metadata>
<g transform="translate(0.000000,1024.000000) scale(0.100000,-0.100000)"
fill="#000000" stroke="none">
<path d="M0 5120 l0 -5120 5120 0 5120 0 0 5120 0 5120 -5120 0 -5120 0 0
-5120z m5248 3263 c-5 -26 -38 -29 -38 -4 0 15 6 21 21 21 14 0 19 -5 17 -17z
m724 -75 c-6 -6 -15 -9 -18 -5 -4 3 -4 14 0 23 5 13 9 15 18 6 9 -9 9 -15 0
-24z m-1485 -84 c9 -23 -11 -38 -26 -20 -13 16 -7 36 10 36 5 0 12 -7 16 -16z
m1082 -61 c-15 -18 -34 -1 -25 22 5 14 9 15 21 5 12 -10 13 -16 4 -27z m-649
-18 c0 -8 -5 -17 -11 -21 -16 -9 -30 18 -17 33 12 15 28 8 28 -12z m1668 -97
c-2 -13 -7 -23 -13 -23 -5 0 -11 10 -13 23 -2 15 2 22 13 22 11 0 15 -7 13
-22z m-2662 -55 c-10 -10 -19 5 -10 18 6 11 8 11 12 0 2 -7 1 -15 -2 -18z
m1182 -56 c2 -11 -3 -17 -16 -17 -24 0 -32 8 -25 26 7 20 37 13 41 -9z m140
-104 c105 -46 135 -61 222 -113 52 -31 117 -70 144 -86 56 -32 79 -47 198
-121 46 -28 113 -67 151 -87 37 -20 99 -57 137 -82 39 -26 82 -47 98 -48 15
-1 27 -6 27 -13 0 -7 32 -29 70 -49 39 -20 72 -40 75 -44 10 -15 236 -148 285
-168 36 -15 68 -20 115 -18 36 2 86 3 113 4 35 2 47 6 47 18 0 25 44 13 48
-13 2 -16 10 -23 26 -23 22 0 71 -31 88 -55 4 -5 8 -6 8 -2 0 11 80 -88 107
-133 39 -64 56 -146 51 -240 -6 -96 -26 -153 -83 -230 l-35 -48 2 -868 3 -869
34 -63 c29 -52 35 -76 39 -141 5 -89 -12 -160 -70 -288 -32 -69 -56 -95 -683
-726 l-650 -654 -85 -23 c-47 -12 -94 -27 -105 -32 -11 -6 -72 -61 -135 -123
-63 -62 -134 -122 -158 -134 -140 -71 -318 -63 -437 19 -22 15 -78 67 -125
115 -90 92 -143 129 -200 140 -118 22 -90 -2 -686 598 -308 309 -600 608 -649
663 -87 98 -91 106 -134 223 -54 150 -63 229 -33 313 11 32 30 70 41 84 20 26
20 35 21 893 l0 866 -40 53 c-99 133 -107 332 -19 477 39 64 100 135 116 135
6 0 13 7 17 15 3 8 9 15 13 14 4 -1 11 0 16 1 18 6 24 8 54 15 18 4 31 11 28
15 -2 4 19 6 48 4 45 -2 47 -2 17 5 -48 11 -7 12 83 2 37 -4 67 -5 67 -2 0 4
20 6 45 5 24 0 42 3 39 8 -5 8 11 12 30 9 4 -1 19 5 32 14 13 8 24 13 24 9 0
-9 54 27 63 43 4 7 12 13 18 13 17 0 100 56 93 63 -4 4 2 7 14 7 12 0 22 4 22
9 0 5 8 11 18 14 25 9 106 58 113 69 4 6 12 7 18 4 6 -4 11 -3 11 1 0 5 25 22
55 38 30 15 55 32 55 37 0 4 6 8 13 8 7 0 23 9 35 20 12 12 22 17 22 13 0 -4
4 -3 8 2 7 10 95 66 207 131 28 16 57 33 66 39 46 28 105 59 112 57 4 -1 7 2
7 8 0 6 7 10 15 10 8 0 15 5 15 10 0 6 4 10 8 10 8 0 107 53 172 92 170 101
286 126 388 81z m-1051 -9 c8 -21 -13 -42 -28 -27 -13 13 -5 43 11 43 6 0 13
-7 17 -16z m1533 -64 c0 -5 -4 -10 -10 -10 -5 0 -10 5 -10 10 0 6 5 10 10 10
6 0 10 -4 10 -10z m557 -46 c7 -18 -17 -38 -31 -24 -11 11 -1 40 14 40 6 0 13
-7 17 -16z m-2857 -8 c0 -21 -21 -31 -30 -15 -5 7 -6 17 -4 21 9 14 34 9 34
-6z m1238 -14 c3 -17 -2 -22 -18 -22 -25 0 -38 29 -19 41 20 13 34 6 37 -19z
m2365 -68 c-3 -8 -9 -14 -13 -14 -14 0 -22 20 -16 37 5 12 9 13 21 3 7 -6 11
-18 8 -26z m-1043 -54 c0 -13 -7 -20 -20 -20 -13 0 -20 7 -20 20 0 13 7 20 20
20 13 0 20 -7 20 -20z m-1935 -50 c8 -13 -14 -42 -26 -34 -5 3 -9 14 -9 25 0
20 24 26 35 9z m-302 -7 c9 -9 -13 -34 -24 -27 -14 8 -11 34 4 34 8 0 17 -3
20 -7z m4037 -188 c0 -18 -25 -26 -38 -13 -8 8 -8 17 -1 30 8 15 13 17 25 7 8
-6 14 -17 14 -24z m-4190 -110 c0 -8 -4 -15 -10 -15 -5 0 -10 7 -10 15 0 8 5
15 10 15 6 0 10 -7 10 -15z m3120 -50 c0 -8 -4 -15 -10 -15 -5 0 -10 7 -10 15
0 8 5 15 10 15 6 0 10 -7 10 -15z m470 -90 c0 -8 -4 -15 -10 -15 -5 0 -10 7
-10 15 0 8 5 15 10 15 6 0 10 -7 10 -15z m-3992 -50 c5 -22 -18 -37 -35 -23
-9 7 -10 15 -2 30 12 23 32 19 37 -7z m4152 -279 c0 -8 -4 -17 -9 -21 -12 -7
-24 12 -16 25 9 15 25 12 25 -4z m305 -16 c3 -5 -1 -10 -9 -10 -9 0 -16 5 -16
10 0 6 4 10 9 10 6 0 13 -4 16 -10z m-4916 -37 c-15 -18 -34 -1 -25 22 5 14 9
15 21 5 12 -10 13 -16 4 -27z m5324 -325 c6 -19 -3 -38 -18 -38 -18 0 -26 15
-19 34 7 19 31 21 37 4z m-513 -18 c0 -21 -24 -28 -35 -10 -8 14 3 30 21 30 8
0 14 -9 14 -20z m-4960 -265 c0 -8 -7 -15 -15 -15 -16 0 -20 12 -8 23 11 12
23 8 23 -8z m280 -40 c0 -8 -7 -15 -15 -15 -8 0 -15 7 -15 15 0 8 7 15 15 15
8 0 15 -7 15 -15z m-563 -31 c8 -20 -8 -36 -26 -25 -15 10 -8 41 9 41 6 0 13
-7 17 -16z m5043 -24 c0 -11 -7 -20 -15 -20 -8 0 -15 9 -15 20 0 11 7 20 15
20 8 0 15 -9 15 -20z m667 5 c7 -20 -2 -29 -21 -22 -9 4 -13 13 -10 22 8 19
23 19 31 0z m443 -40 c0 -8 -7 -15 -15 -15 -16 0 -20 12 -8 23 11 12 23 8 23
-8z m-733 -161 c8 -21 -13 -42 -28 -27 -13 13 -5 43 11 43 6 0 13 -7 17 -16z
m-5972 -219 c0 -28 -29 -25 -33 3 -3 19 0 23 15 20 10 -2 18 -12 18 -23z
m1025 -55 c0 -13 -7 -20 -20 -20 -13 0 -20 7 -20 20 0 13 7 20 20 20 13 0 20
-7 20 -20z m4725 -10 c0 -22 -29 -18 -33 3 -3 14 1 18 15 15 10 -2 18 -10 18
-18z m-4615 -215 c0 -8 -4 -15 -10 -15 -5 0 -10 7 -10 15 0 8 5 15 10 15 6 0
10 -7 10 -15z m5130 -5 c0 -11 -6 -20 -13 -20 -19 0 -27 10 -20 26 8 21 33 17
33 -6z m-5822 -77 c-5 -26 -38 -29 -38 -4 0 15 6 21 21 21 14 0 19 -5 17 -17z
m5122 -103 c0 -5 -4 -10 -10 -10 -5 0 -10 5 -10 10 0 6 5 10 10 10 6 0 10 -4
10 -10z m248 -127 c-5 -25 -28 -28 -28 -4 0 12 6 21 16 21 9 0 14 -7 12 -17z
m-5015 -79 c9 -10 -4 -34 -18 -34 -17 0 -28 17 -20 30 7 11 28 13 38 4z m422
-94 c3 -5 1 -10 -4 -10 -6 0 -11 5 -11 10 0 6 2 10 4 10 3 0 8 -4 11 -10z
m-945 -188 c0 -10 -3 -22 -7 -25 -10 -11 -32 13 -26 29 8 20 33 17 33 -4z
m6120 -21 c0 -11 -5 -23 -11 -27 -15 -9 -33 12 -26 30 9 23 37 20 37 -3z
m-524 -340 c-9 -14 -33 -14 -41 -1 -4 6 -1 18 6 26 11 13 14 13 27 0 8 -8 11
-19 8 -25z m-4878 -2 c3 -19 -19 -31 -37 -20 -16 11 -2 43 18 39 9 -2 17 -10
19 -19z m4672 -133 c0 -18 -16 -29 -30 -21 -13 8 -1 35 16 35 8 0 14 -6 14
-14z m555 -126 c0 -8 -8 -16 -17 -18 -13 -2 -18 3 -18 18 0 15 5 20 18 18 9
-2 17 -10 17 -18z m-655 -105 c0 -8 -4 -15 -10 -15 -5 0 -10 7 -10 15 0 8 5
15 10 15 6 0 10 -7 10 -15z m-4465 -145 c8 -13 -14 -42 -26 -34 -5 3 -9 14 -9
25 0 20 24 26 35 9z m-315 -84 c0 -8 -5 -18 -11 -22 -14 -8 -33 11 -25 25 10
16 36 13 36 -3z m552 -98 c-15 -15 -26 -4 -18 18 5 13 9 15 18 6 9 -9 9 -15 0
-24z m3905 -54 c8 -21 -13 -42 -28 -27 -13 13 -5 43 11 43 6 0 13 -7 17 -16z
m408 -4 c0 -8 -8 -16 -17 -18 -13 -2 -18 3 -18 18 0 15 5 20 18 18 9 -2 17
-10 17 -18z m-4168 -205 c7 -20 -2 -29 -21 -22 -9 4 -13 13 -10 22 8 19 23 19
31 0z m4523 -44 c0 -11 -4 -22 -9 -25 -12 -8 -34 21 -26 34 11 17 35 11 35 -9z
m-4105 -41 c0 -8 -8 -16 -17 -18 -13 -2 -18 3 -18 18 0 15 5 20 18 18 9 -2 17
-10 17 -18z m3015 -89 c0 -11 -5 -23 -11 -27 -15 -9 -33 12 -26 30 9 23 37 20
37 -3z m-260 -55 c0 -3 -4 -8 -10 -11 -5 -3 -10 -1 -10 4 0 6 5 11 10 11 6 0
10 -2 10 -4z m537 -72 c8 -20 -8 -36 -26 -25 -15 10 -8 41 9 41 6 0 13 -7 17
-16z m-4274 -8 c8 -20 -20 -43 -35 -28 -14 14 -3 42 16 42 7 0 16 -6 19 -14z
m3677 -175 c0 -19 -23 -35 -34 -24 -14 15 -5 43 14 43 13 0 20 -7 20 -19z
m-2522 -58 c5 -17 -26 -29 -40 -15 -6 6 -7 15 -3 22 9 14 37 9 43 -7z m-303
-173 c0 -8 -8 -16 -17 -18 -13 -2 -18 3 -18 18 0 15 5 20 18 18 9 -2 17 -10
17 -18z m505 -79 c0 -11 -4 -22 -8 -25 -14 -9 -35 12 -29 28 9 23 37 20 37 -3z
m226 -202 c10 -17 -13 -36 -27 -22 -12 12 -4 33 11 33 5 0 12 -5 16 -11z m526
-4 c0 -5 -5 -11 -11 -13 -6 -2 -11 4 -11 13 0 9 5 15 11 13 6 -2 11 -8 11 -13z
m1248 -36 c0 -12 -7 -19 -20 -19 -22 0 -29 35 -7 43 18 6 27 -2 27 -24z m-435
-39 c0 -8 -8 -16 -17 -18 -13 -2 -18 3 -18 18 0 15 5 20 18 18 9 -2 17 -10 17
-18z m-767 -157 c-4 -22 -22 -20 -26 1 -2 10 3 16 13 16 10 0 15 -7 13 -17z"/>
<path d="M5020 7536 c-142 -73 -226 -119 -253 -138 -16 -11 -58 -36 -95 -56
-37 -19 -109 -59 -160 -89 -51 -29 -94 -53 -96 -53 -5 0 -166 -94 -220 -128
-28 -18 -53 -32 -58 -32 -4 0 -29 -13 -55 -28 -48 -28 -124 -70 -250 -138 -38
-20 -108 -59 -157 -87 -87 -49 -89 -50 -115 -33 -14 9 -45 26 -67 37 -40 18
-44 18 -95 2 -79 -26 -127 -69 -165 -148 -40 -84 -29 -172 30 -250 l31 -40 -4
-935 c-2 -603 -7 -944 -14 -960 -5 -14 -11 -32 -13 -40 -1 -8 -9 -44 -17 -80
-8 -36 -11 -66 -6 -68 5 -2 9 -14 9 -26 0 -42 30 -111 68 -156 59 -71 222
-240 877 -909 358 -366 330 -343 439 -370 90 -22 147 -60 248 -161 85 -87 154
-144 134 -111 -5 7 -1 9 8 5 9 -3 14 -10 11 -14 -8 -12 29 -22 50 -14 13 5 16
4 11 -4 -4 -7 -1 -12 9 -12 9 0 13 5 10 10 -3 6 1 10 10 10 9 0 13 -4 10 -10
-4 -6 6 -10 22 -9 25 0 26 1 8 10 -16 7 -13 8 13 4 36 -5 85 13 75 28 -3 6 -1
7 6 3 15 -10 43 13 34 27 -3 5 -2 7 4 4 5 -3 43 28 84 70 83 84 173 148 231
163 21 6 55 14 76 20 32 8 111 83 483 455 626 627 797 805 819 847 61 116 71
234 26 311 l-26 44 0 930 0 931 34 51 c39 57 61 145 51 198 -8 42 -42 98 -82
133 -46 42 -90 70 -110 70 -15 0 -16 2 -3 10 12 8 9 10 -11 10 -43 0 -118 -27
-156 -56 l-36 -27 -86 43 c-47 23 -128 67 -179 96 -52 30 -95 54 -97 54 -6 0
-777 442 -945 542 -181 107 -244 119 -350 64z m38 -336 c-14 -42 -30 -68 -52
-85 -43 -33 -570 -319 -664 -362 -53 -23 -373 -198 -466 -255 -44 -27 -61 -31
-150 -35 l-101 -5 35 30 c43 38 104 73 750 432 576 320 611 338 652 339 15 1
15 -4 -4 -59z m275 -8 c73 -38 193 -103 267 -144 74 -41 268 -148 430 -238
399 -220 550 -306 580 -331 l25 -21 -107 6 -108 5 -232 128 c-128 70 -257 139
-288 153 -31 14 -96 47 -145 74 -572 313 -539 292 -570 362 -14 31 -25 60 -25
65 0 21 50 4 173 -59z m-55 -222 c67 -39 137 -76 155 -82 18 -6 39 -16 47 -23
8 -7 48 -29 88 -48 40 -20 82 -43 95 -52 22 -16 22 -16 -8 -10 -16 4 -80 31
-141 61 -89 43 -122 54 -165 56 l-54 1 45 6 45 6 -85 45 c-47 24 -106 54 -131
67 l-47 22 -133 -69 -134 -69 50 -4 50 -3 -55 -2 c-45 -2 -77 -14 -174 -62
-115 -58 -146 -69 -146 -52 0 8 158 95 231 127 50 22 154 80 239 132 37 23 63
32 80 29 14 -2 80 -37 148 -76z m-31 -96 c-3 -3 -12 -4 -19 -1 -8 3 -5 6 6 6
11 1 17 -2 13 -5z m-862 -237 c-66 -35 -154 -83 -195 -106 -41 -24 -113 -63
-160 -88 -162 -86 -250 -137 -250 -145 0 -4 -10 -8 -22 -8 -30 0 -45 -11 -50
-35 -3 -15 -5 -12 -9 12 -5 30 -3 33 60 65 226 115 468 242 481 252 29 24 144
90 179 102 20 7 47 13 61 13 16 1 -17 -21 -95 -62z m1467 40 c29 -13 103 -53
163 -89 61 -36 148 -85 195 -108 47 -23 88 -48 92 -54 4 -6 8 -7 8 -3 0 5 12
-1 28 -11 15 -11 69 -41 120 -66 l92 -47 -2 -57 -2 -57 -3 53 c-4 50 -5 52
-33 52 -16 0 -35 6 -42 13 -7 7 -42 28 -78 46 -36 19 -96 52 -133 73 -38 22
-90 43 -115 48 -35 6 -39 8 -17 9 28 1 28 2 10 14 -11 8 -69 40 -130 72 -60
31 -121 65 -135 75 -14 10 -36 21 -50 25 -14 4 -34 14 -45 21 -19 14 -19 14 2
14 13 0 46 -11 75 -23z m-2234 -282 c-37 -21 -46 -66 -19 -104 20 -28 20 -38
21 -887 0 -473 -1 -868 -2 -879 -2 -11 -7 -23 -11 -26 -4 -3 -4 -24 1 -47 11
-49 -3 -131 -24 -139 -25 -9 -15 -22 22 -29 37 -7 40 -11 48 -59 4 -20 30 -52
86 -105 44 -41 80 -82 80 -90 0 -18 27 -43 92 -86 49 -32 158 -127 158 -138 0
-9 30 -45 83 -100 27 -28 63 -71 82 -96 36 -49 157 -160 174 -160 6 0 11 -4
11 -9 0 -7 -29 -19 -60 -25 -16 -4 -29 -19 -24 -29 3 -7 -110 105 -253 248
-276 278 -450 477 -503 576 -67 126 -63 73 -67 1064 -4 960 -3 985 44 1082 23
47 30 53 57 53 l31 -1 -27 -14z m3111 -80 l26 -60 3 -850 c3 -828 -2 -1006
-29 -1083 l-11 -33 -24 26 c-12 14 -31 25 -40 25 -14 0 -16 8 -9 63 13 113 13
127 4 133 -5 3 -9 342 -9 802 0 438 -2 847 -5 907 -2 61 -2 104 1 97 7 -16 34
3 34 25 0 35 36 4 59 -52z m-1499 -46 c95 -15 193 -66 280 -146 127 -115 135
-120 220 -125 87 -6 136 -27 198 -87 63 -61 94 -131 100 -221 5 -81 -4 -121
-56 -250 -16 -41 -33 -94 -37 -117 -3 -23 1 -166 10 -317 l17 -275 -25 -53
c-14 -29 -64 -98 -112 -153 -48 -55 -143 -166 -210 -246 -169 -200 -215 -246
-280 -276 -156 -71 -363 -48 -475 54 -24 20 -113 121 -200 223 -87 102 -191
223 -232 270 -40 47 -84 103 -97 124 l-24 38 9 242 c14 390 15 371 -40 530
-43 124 -48 146 -44 200 14 164 167 315 322 316 79 1 99 11 187 93 171 158
305 206 489 176z m1317 -276 c-3 -10 -5 -2 -5 17 0 19 2 27 5 18 2 -10 2 -26
0 -35z m0 -190 c-3 -10 -5 -4 -5 12 0 17 2 24 5 18 2 -7 2 -21 0 -30z m0 -810
c-3 -10 -5 -4 -5 12 0 17 2 24 5 18 2 -7 2 -21 0 -30z m0 -385 c-2 -35 -3 -7
-3 62 0 69 1 97 3 63 2 -35 2 -91 0 -125z m-2802 -334 c13 -5 14 -8 3 -15 -10
-7 -11 -9 0 -9 8 0 10 -5 6 -12 -5 -7 -2 -9 8 -6 8 4 15 0 15 -8 0 -15 -12
-10 -44 19 -35 31 -28 46 12 31z m2794 -15 c-13 -24 -26 -31 -26 -14 0 8 4 15
9 15 5 0 7 4 4 8 -3 5 1 9 9 9 10 0 11 -5 4 -18z m167 4 c-32 -84 -187 -270
-462 -553 -94 -96 -195 -201 -225 -232 -53 -55 -58 -58 -105 -58 -86 0 -87 14
-3 80 50 40 109 101 109 114 0 6 12 23 26 36 62 59 164 166 164 173 0 4 -10 7
-22 7 -28 0 -18 10 18 16 16 3 45 20 64 37 39 37 128 109 147 121 7 4 21 2 32
-4 11 -6 22 -6 25 -1 3 5 -10 12 -29 15 -41 8 -43 15 -12 40 12 11 38 33 58
50 20 17 57 48 83 69 46 39 46 39 25 56 -20 16 -20 18 -4 34 11 11 33 17 67
17 44 0 49 -2 44 -17z m-2596 -368 c7 -8 8 -15 2 -15 -5 0 -15 7 -22 15 -7 8
-8 15 -2 15 5 0 15 -7 22 -15z m2080 11 c0 -2 -8 -10 -17 -17 -16 -13 -17 -12
-4 4 13 16 21 21 21 13z m-2007 -63 c-7 -2 -21 -2 -30 0 -10 3 -4 5 12 5 17 0
24 -2 18 -5z m1930 0 c-7 -2 -19 -2 -25 0 -7 3 -2 5 12 5 14 0 19 -2 13 -5z
m-1698 -509 c11 -4 23 -6 28 -6 4 1 6 -2 5 -8 -2 -5 17 -23 41 -39 40 -27 42
-30 24 -40 -18 -9 -30 -1 -89 55 -38 36 -60 61 -49 56 11 -6 29 -14 40 -18z
m1428 -29 c-55 -52 -99 -73 -87 -40 3 8 10 13 15 12 5 -1 19 14 31 33 18 28
19 32 4 21 -10 -8 -27 -16 -39 -16 -19 -2 -19 -1 3 17 14 11 34 18 46 15 13
-2 29 0 36 4 7 5 21 9 31 9 12 0 -1 -18 -40 -55z m-1178 -145 c41 0 76 -4 79
-8 9 -16 -19 -55 -42 -59 -29 -4 -96 26 -137 61 l-30 26 28 -10 c16 -5 61 -10
102 -10z m1034 -6 c-13 -15 -42 -35 -64 -45 -47 -21 -181 -34 -190 -19 -3 5
-2 10 3 10 5 0 23 14 40 30 29 27 38 30 104 31 40 1 84 5 98 9 14 4 27 8 29 9
3 1 -6 -11 -20 -25z"/>
<path d="M5228 6213 c7 -3 16 -2 19 1 4 3 -2 6 -13 5 -11 0 -14 -3 -6 -6z"/>
<path d="M5320 6189 c32 -22 72 -40 66 -30 -6 10 -64 41 -75 41 -3 0 1 -5 9
-11z"/>
<path d="M5006 6104 c-48 -17 -75 -38 -190 -143 -49 -45 -98 -87 -110 -94 -12
-6 -67 -14 -123 -17 -114 -6 -136 -18 -174 -92 -28 -54 -24 -107 15 -208 19
-49 43 -125 52 -169 l17 -81 61 -1 c46 -1 55 -3 36 -9 -14 -4 -41 -8 -61 -9
l-36 -1 -8 -202 c-12 -314 -12 -312 18 -350 14 -18 83 -103 152 -188 70 -85
170 -208 222 -273 53 -65 110 -125 127 -134 18 -10 65 -18 112 -21 118 -6 169
13 230 86 27 31 98 116 160 187 265 310 295 350 297 397 l2 33 -60 1 c-33 0
-73 2 -90 3 l-30 2 25 10 c14 6 52 7 88 3 l64 -7 -7 194 c-6 161 -10 196 -24
206 -9 7 -11 13 -5 13 6 0 14 31 17 74 4 47 21 115 48 191 22 64 43 135 45
156 6 45 -20 110 -59 152 -24 25 -32 27 -104 27 -114 0 -141 11 -227 91 -42
39 -80 68 -85 65 -5 -3 -15 2 -22 12 -13 16 -12 16 6 2 20 -14 20 -14 1 7 -10
13 -23 20 -29 16 -5 -3 -7 -1 -4 4 8 13 -59 60 -104 73 -50 15 -198 11 -243
-6z m270 -84 l48 -24 -29 -8 c-37 -10 -102 -1 -134 19 -21 13 -32 14 -80 2
-66 -15 -121 -19 -121 -8 0 23 104 46 196 44 52 -1 85 -8 120 -25z m-505 -219
c-12 -21 -144 -61 -202 -61 -43 0 -69 -18 -72 -48 -1 -17 -7 -22 -29 -22 -35
0 -35 15 -3 63 l26 37 95 0 c60 0 107 5 129 14 19 8 35 12 35 8 0 -4 5 1 11
11 14 23 22 22 10 -2z m1004 -67 c17 -18 25 -39 25 -61 0 -19 -4 -32 -9 -29
-5 3 -7 15 -4 25 6 22 -41 76 -72 84 -15 3 -13 5 8 6 18 1 36 -8 52 -25z
m-1261 -131 c-17 -3 -21 -9 -16 -26 6 -25 0 -22 -17 11 -11 21 -10 22 21 21
22 -1 26 -3 12 -6z m1269 -13 c-3 -12 -8 -19 -11 -16 -5 6 5 36 12 36 2 0 2
-9 -1 -20z m-1263 -75 c0 -5 -5 -3 -10 5 -5 8 -10 20 -10 25 0 6 5 3 10 -5 5
-8 10 -19 10 -25z m715 -69 c100 -46 165 -154 152 -251 -9 -62 -30 -100 -93
-167 l-54 -57 0 -226 0 -227 -30 -28 c-38 -36 -83 -44 -126 -24 -18 9 -38 22
-44 28 -5 7 -15 117 -21 247 l-12 234 -53 56 c-90 96 -107 214 -44 312 72 114
209 158 325 103z m-656 -619 c14 -17 4 -27 -26 -27 -16 0 -23 6 -23 20 0 23
31 27 49 7z m756 -627 c-14 -16 -30 -20 -74 -19 -52 1 -54 2 -21 10 19 4 51
12 70 17 19 6 37 10 39 11 2 1 -4 -8 -14 -19z"/>
<path d="M5050 5328 c-38 -26 -70 -81 -70 -118 1 -40 35 -106 69 -131 l31 -23
0 -158 c0 -156 0 -159 23 -167 13 -5 35 -7 50 -4 l27 5 0 163 c0 160 0 163 24
178 61 40 86 139 52 206 -36 69 -139 94 -206 49z"/>
<path d="M4588 5893 c6 -2 18 -2 25 0 6 3 1 5 -13 5 -14 0 -19 -2 -12 -5z"/>
<path d="M6482 4044 c-15 -12 -15 -13 -1 -14 8 0 23 6 33 13 17 12 17 14 2 14
-9 0 -24 -6 -34 -13z"/>
<path d="M3575 6770 c3 -5 8 -10 11 -10 2 0 4 5 4 10 0 6 -5 10 -11 10 -5 0
-7 -4 -4 -10z"/>
<path d="M7158 4357 c4 -102 10 -115 11 -27 0 41 -3 80 -7 87 -4 7 -6 -20 -4
-60z"/>
<path d="M5626 2685 c-10 -10 -17 -12 -21 -5 -4 7 -20 -2 -39 -22 -17 -18 -45
-40 -61 -48 -28 -15 -57 -76 -32 -67 7 2 11 15 9 28 -1 16 1 20 6 11 6 -9 20
-2 53 28 24 22 56 45 72 51 15 6 27 15 27 20 0 5 7 5 17 2 11 -4 14 -3 9 5
-10 16 -22 15 -40 -3z"/>
</g>
</svg>
